<mxfile host="app.diagrams.net" modified="2022-11-17T17:05:42.513Z" agent="5.0 (Macintosh; Intel Mac OS X 10_15_6) AppleWebKit/605.1.15 (KHTML, like Gecko) Version/15.6,2 Safari/605.1.15" etag="iQBHArtD_NEYIIZKbWpY" version="20.5.3" type="github">
  <diagram id="X3mk3wPwBhCQi_FoYerl" name="Page-1">
    <mxGraphModel dx="696" dy="552" grid="1" gridSize="10" guides="1" tooltips="1" connect="1" arrows="1" fold="1" page="1" pageScale="1" pageWidth="827" pageHeight="1169" math="0" shadow="0">
      <root>
        <mxCell id="0" />
        <mxCell id="1" parent="0" />
        <mxCell id="JIqXnu5RI000O0QvCwiH-1" value="" style="whiteSpace=wrap;html=1;aspect=fixed;" parent="1" vertex="1">
          <mxGeometry x="320" y="250" width="80" height="80" as="geometry" />
        </mxCell>
        <mxCell id="JIqXnu5RI000O0QvCwiH-3" style="edgeStyle=orthogonalEdgeStyle;rounded=0;orthogonalLoop=1;jettySize=auto;html=1;" parent="1" source="JIqXnu5RI000O0QvCwiH-2" target="JIqXnu5RI000O0QvCwiH-1" edge="1">
          <mxGeometry relative="1" as="geometry" />
        </mxCell>
        <mxCell id="JIqXnu5RI000O0QvCwiH-2" value="" style="whiteSpace=wrap;html=1;aspect=fixed;" parent="1" vertex="1">
          <mxGeometry x="110" y="250" width="80" height="80" as="geometry" />
        </mxCell>
        <mxCell id="Ro6gDhWV0mDDRHIsnVCK-2" style="edgeStyle=orthogonalEdgeStyle;rounded=0;orthogonalLoop=1;jettySize=auto;html=1;" edge="1" parent="1" source="Ro6gDhWV0mDDRHIsnVCK-1" target="JIqXnu5RI000O0QvCwiH-2">
          <mxGeometry relative="1" as="geometry" />
        </mxCell>
        <mxCell id="Ro6gDhWV0mDDRHIsnVCK-3" style="edgeStyle=orthogonalEdgeStyle;rounded=0;orthogonalLoop=1;jettySize=auto;html=1;entryX=0.75;entryY=1;entryDx=0;entryDy=0;" edge="1" parent="1" source="Ro6gDhWV0mDDRHIsnVCK-1" target="JIqXnu5RI000O0QvCwiH-1">
          <mxGeometry relative="1" as="geometry" />
        </mxCell>
        <mxCell id="Ro6gDhWV0mDDRHIsnVCK-1" value="" style="ellipse;whiteSpace=wrap;html=1;" vertex="1" parent="1">
          <mxGeometry x="190" y="360" width="120" height="80" as="geometry" />
        </mxCell>
      </root>
    </mxGraphModel>
  </diagram>
</mxfile>
